<mxfile host="app.diagrams.net" modified="2021-07-11T03:03:20.229Z" agent="5.0 (Macintosh; Intel Mac OS X 10_13_6) AppleWebKit/537.36 (KHTML, like Gecko) Chrome/91.0.4472.114 Safari/537.36" etag="Kf3PwcAxzu5djxQ6XMbu" version="14.8.4" type="github">
  <diagram id="aAxCCbDvJp1J9khhxcws" name="Page-1">
    <mxGraphModel dx="946" dy="578" grid="1" gridSize="10" guides="1" tooltips="1" connect="1" arrows="1" fold="1" page="1" pageScale="1" pageWidth="827" pageHeight="1169" math="0" shadow="0">
      <root>
        <mxCell id="0" />
        <mxCell id="1" parent="0" />
        <mxCell id="xm7nu4Tk3IysUUltHsgT-1" value="访问框架" style="rounded=1;whiteSpace=wrap;html=1;fillColor=#d5e8d4;strokeColor=#82b366;" vertex="1" parent="1">
          <mxGeometry x="330" y="120" width="120" height="40" as="geometry" />
        </mxCell>
        <mxCell id="xm7nu4Tk3IysUUltHsgT-2" value="Socket Server" style="rounded=1;whiteSpace=wrap;html=1;fillColor=#ffe6cc;strokeColor=#d79b00;" vertex="1" parent="1">
          <mxGeometry x="330" y="190" width="120" height="40" as="geometry" />
        </mxCell>
        <mxCell id="xm7nu4Tk3IysUUltHsgT-3" value="请求解析" style="rounded=1;whiteSpace=wrap;html=1;fillColor=#d5e8d4;strokeColor=#82b366;" vertex="1" parent="1">
          <mxGeometry x="330" y="260" width="120" height="40" as="geometry" />
        </mxCell>
        <mxCell id="xm7nu4Tk3IysUUltHsgT-4" value="操作模块&lt;br&gt;(SET/GET/DEL, LPUSH/LPOP, SADD/SREM, HGET/HSET...)" style="rounded=1;whiteSpace=wrap;html=1;fillColor=#ffe6cc;strokeColor=#d79b00;" vertex="1" parent="1">
          <mxGeometry x="269" y="330" width="261" height="60" as="geometry" />
        </mxCell>
        <mxCell id="xm7nu4Tk3IysUUltHsgT-5" value="" style="endArrow=none;dashed=1;html=1;" edge="1" parent="1">
          <mxGeometry width="50" height="50" relative="1" as="geometry">
            <mxPoint x="20" y="250" as="sourcePoint" />
            <mxPoint x="770" y="250" as="targetPoint" />
          </mxGeometry>
        </mxCell>
        <mxCell id="xm7nu4Tk3IysUUltHsgT-6" value="" style="endArrow=none;dashed=1;html=1;" edge="1" parent="1">
          <mxGeometry width="50" height="50" relative="1" as="geometry">
            <mxPoint x="24.5" y="410" as="sourcePoint" />
            <mxPoint x="774.5" y="410" as="targetPoint" />
          </mxGeometry>
        </mxCell>
        <mxCell id="xm7nu4Tk3IysUUltHsgT-7" value="索引模块" style="rounded=1;whiteSpace=wrap;html=1;fillColor=#d5e8d4;strokeColor=#82b366;" vertex="1" parent="1">
          <mxGeometry x="85" y="430" width="100" height="30" as="geometry" />
        </mxCell>
        <mxCell id="xm7nu4Tk3IysUUltHsgT-8" value="" style="rounded=0;whiteSpace=wrap;html=1;" vertex="1" parent="1">
          <mxGeometry x="195" y="430" width="150" height="90" as="geometry" />
        </mxCell>
        <mxCell id="xm7nu4Tk3IysUUltHsgT-9" value="" style="rounded=0;whiteSpace=wrap;html=1;" vertex="1" parent="1">
          <mxGeometry x="365" y="430" width="150" height="90" as="geometry" />
        </mxCell>
        <mxCell id="xm7nu4Tk3IysUUltHsgT-10" value="存储模块" style="rounded=1;whiteSpace=wrap;html=1;fillColor=#d5e8d4;strokeColor=#82b366;" vertex="1" parent="1">
          <mxGeometry x="220" y="440" width="100" height="30" as="geometry" />
        </mxCell>
        <mxCell id="xm7nu4Tk3IysUUltHsgT-11" value="高可用支撑" style="rounded=1;whiteSpace=wrap;html=1;fillColor=#d5e8d4;strokeColor=#82b366;" vertex="1" parent="1">
          <mxGeometry x="390" y="440" width="100" height="30" as="geometry" />
        </mxCell>
        <mxCell id="xm7nu4Tk3IysUUltHsgT-14" value="分配器" style="rounded=1;whiteSpace=wrap;html=1;fillColor=#ffe6cc;strokeColor=#d79b00;" vertex="1" parent="1">
          <mxGeometry x="205" y="480" width="60" height="30" as="geometry" />
        </mxCell>
        <mxCell id="xm7nu4Tk3IysUUltHsgT-15" value="持久化" style="rounded=1;whiteSpace=wrap;html=1;fillColor=#ffe6cc;strokeColor=#d79b00;" vertex="1" parent="1">
          <mxGeometry x="275" y="480" width="60" height="30" as="geometry" />
        </mxCell>
        <mxCell id="xm7nu4Tk3IysUUltHsgT-16" value="主从复制" style="rounded=1;whiteSpace=wrap;html=1;fillColor=#ffe6cc;strokeColor=#d79b00;" vertex="1" parent="1">
          <mxGeometry x="375" y="480" width="60" height="30" as="geometry" />
        </mxCell>
        <mxCell id="xm7nu4Tk3IysUUltHsgT-17" value="哨兵机制" style="rounded=1;whiteSpace=wrap;html=1;fillColor=#ffe6cc;strokeColor=#d79b00;" vertex="1" parent="1">
          <mxGeometry x="445" y="480" width="60" height="30" as="geometry" />
        </mxCell>
        <mxCell id="xm7nu4Tk3IysUUltHsgT-18" value="" style="rounded=0;whiteSpace=wrap;html=1;" vertex="1" parent="1">
          <mxGeometry x="545" y="430" width="150" height="90" as="geometry" />
        </mxCell>
        <mxCell id="xm7nu4Tk3IysUUltHsgT-19" value="可扩展集群支撑" style="rounded=1;whiteSpace=wrap;html=1;fillColor=#d5e8d4;strokeColor=#82b366;" vertex="1" parent="1">
          <mxGeometry x="570" y="440" width="100" height="30" as="geometry" />
        </mxCell>
        <mxCell id="xm7nu4Tk3IysUUltHsgT-21" value="数据分片(redis cluster)" style="rounded=1;whiteSpace=wrap;html=1;fillColor=#ffe6cc;strokeColor=#d79b00;" vertex="1" parent="1">
          <mxGeometry x="570" y="480" width="105" height="30" as="geometry" />
        </mxCell>
        <mxCell id="xm7nu4Tk3IysUUltHsgT-22" value="网络层" style="text;html=1;strokeColor=none;fillColor=none;align=center;verticalAlign=middle;whiteSpace=wrap;rounded=0;" vertex="1" parent="1">
          <mxGeometry x="30" y="120" width="40" height="20" as="geometry" />
        </mxCell>
        <mxCell id="xm7nu4Tk3IysUUltHsgT-27" value="逻辑处理层" style="text;html=1;strokeColor=none;fillColor=none;align=center;verticalAlign=middle;whiteSpace=wrap;rounded=0;" vertex="1" parent="1">
          <mxGeometry x="20" y="260" width="80" height="20" as="geometry" />
        </mxCell>
      </root>
    </mxGraphModel>
  </diagram>
</mxfile>
